<svg xmlns="http://www.w3.org/2000/svg" viewBox="0 0 102 102" id="Git--Streamline-Font-Awesome" height="102" width="102">
  <desc>
    Git Streamline Icon: https://streamlinehq.com
  </desc>
<!--! Font Awesome Free 6.5.2 by @fontawesome - https://fontawesome.com License - https://fontawesome.com/license/free (Icons: CC BY 4.0, Fonts: SIL OFL 1.1, Code: MIT License) Copyright 2024 Fonticons, Inc.-->
  <path d="M43.089023437499996 31.554257812499998H27.29296875C19.32421875 29.464453125000002 1.2969140625 30.0083203125 1.2969140625 46.453828125c0 5.9944921875 2.98828125 10.2059765625 6.97265625 12.15234375 -5.0003906250000005 4.58203125 -7.37109375 6.7435546875000005 -7.37109375 9.8035546875 0 2.19140625 0.8905078125 4.211484375 3.5640234375 5.3410546875C1.6196484375000002 76.4223046875 0 78.36269531250001 0 82.00839843749999c0 6.3969140625 5.5880859375 10.124296875 20.2466015625 10.124296875 14.0947265625 0 22.2706640625 -5.263359375 22.2706640625 -14.578828125000001 0 -11.686171875 -8.99671875 -11.255859375 -30.2075390625 -12.55078125l2.6755078125 -4.2931640625c5.4326953125 1.510078125 23.647265625 1.9921875 23.647265625 -13.5249609375 0 -3.7253906249999997 -1.5399609375 -6.3172265625 -2.98828125 -8.1819140625l7.452773437499999 -0.56578125zm-12.634453125 48.191015625c0 6.386953125000001 -20.8960546875 6.3949218750000005 -20.8960546875 0.4841015625 0 -1.6216406250000002 1.0498828125 -2.98828125 2.1057421875 -4.291171875 15.481289062499998 1.055859375 18.7903125 0.6713671875 18.7903125 3.8070703125zm-10.1223046875 -26.810859375000003c-10.518749999999999 0 -10.052578125 -14.17640625 0.23906249999999998 -14.17640625 9.869296875 0 10.124296875 14.17640625 -0.23906249999999998 14.17640625zm26.555859375 20.0234765625v-6.3949218750000005c5.3291015625 -0.729140625 5.42671875 -0.3984375 5.42671875 -2.19140625V40.5629296875c0 -1.693359375 -0.4083984375 -1.470234375 -5.42671875 -3.2392968750000004l0.8905078125 -6.55828125H64.546875v33.610195312500004c0 1.2969140625 0.07968750000000001 1.45828125 1.2969140625 1.6216406250000002l4.1298046875 0.56578125v6.3949218750000005zm10.449023437500001 -48.6711328125c-4.6158984375 0 -7.289414062500001 -2.6755078125 -7.289414062500001 -7.2933984375s2.673515625 -7.126054687500001 7.289414062500001 -7.126054687500001c4.697578125 0 7.37109375 2.514140625 7.37109375 7.126054687500001s-2.673515625 7.2933984375 -7.37109375 7.2933984375zM102 69.818203125c-3.4843359374999996 1.6993359375 -8.586328125 3.2392968750000004 -13.20421875 3.2392968750000004 -9.638203125 0 -13.2819140625 -3.884765625 -13.2819140625 -13.040859374999998V38.7978515625c0 -1.079765625 0.20917968750000002 -0.8088281249999999 -6.3172265625 -0.8088281249999999V30.779296875c7.128046875 -0.8108203125000001 9.9609375 -4.3828125 10.8514453125 -13.2022265625h7.6958203125c0 13.1145703125 -0.266953125 12.3137109375 0.649453125 12.3137109375H99.80859375v8.0982421875h-12.0646875v19.354101562500002c0 1.37859375 -0.98015625 10.2418359375 12.0666796875 5.34703125z" fill="#000000" stroke-width="0.1992"></path>
</svg>