<svg xmlns="http://www.w3.org/2000/svg" fill="none" viewBox="0 0 102 102" id="Kubernetes--Streamline-Svg-Logos" height="102" width="102">
  <desc>
    Kubernetes Streamline Icon: https://streamlinehq.com
  </desc>
  <path fill="#080808" d="M32.95025 98.077675c-2.32485625 0 -4.5205125 -1.03328125 -6.00578125 -2.9060437500000003L4.3419381249999995 67.079875c-1.4853112499999999 -1.8727624999999999 -2.06652 -4.26221875 -1.4853112499999999 -6.58696875L10.92898125 25.4266875c0.5165875 -2.32485625 2.06645625 -4.19761875 4.19761875 -5.230899999999999L47.8033625 4.56775125c1.03328125 -0.51663 2.19565625 -0.774945 3.3581375 -0.774945 1.1623750000000002 0 2.3247500000000003 0.258315 3.35803125 0.774945L87.19629375 20.1311875c2.1311625 1.03328125 3.68103125 2.9060437500000003 4.19761875 5.230899999999999l8.07234375 35.066218750000004c0.5166937500000001 2.32485625 0 4.714206249999999 -1.48526875 6.58696875l-22.6025625 28.09175625c-1.48526875 1.8081625 -3.680925 2.9060437500000003 -6.00578125 2.9060437500000003l-36.42239375 0.0646Z" stroke-width="1.0625"></path>
  <path fill="#ffffff" d="M51.0969 5.4074025c0.90408125 0 1.8081625 0.19373625 2.64764375 0.5812087499999999L86.4214125 21.552068750000004c1.67906875 0.8394812500000001 2.9706437500000002 2.38945625 3.35803125 4.19761875l8.07234375 35.066218750000004c0.45209374999999996 1.8727624999999999 0 3.8101249999999998 -1.2269750000000001 5.295393750000001L74.02225000000001 94.20305625c-1.1623750000000002 1.48526875 -2.9705375 2.32485625 -4.84340625 2.32485625H32.95025c-1.8727624999999999 0 -3.680925 -0.8395875 -4.84340625 -2.32485625L5.504334375 66.1113c-1.162406875 -1.48526875 -1.614458125 -3.42263125 -1.226985625 -5.295393750000001L12.34965 25.7496875c0.45209374999999996 -1.8727624999999999 1.67906875 -3.42263125 3.3581375 -4.19761875L48.384550000000004 5.9240325c0.8394812500000001 -0.32289375 1.8081625 -0.51663 2.71235 -0.51663Zm0 -3.0351906250000003c-1.356175 0 -2.71235 0.32289375 -4.003925000000001 0.9040918750000001L14.416212499999999 18.90431875c-2.58315 1.2269750000000001 -4.391365625 3.48723125 -5.037153125 6.26418125L1.3067262499999999 60.23471875c-0.6457864375 2.7768437500000003 0 5.6182875 1.808205 7.8785437499999995l22.6025625 28.09175625c1.7435625 2.19565625 4.3913125 3.42263125 7.16815625 3.42263125h36.2287c2.7768437500000003 0 5.4245937500000005 -1.2269750000000001 7.16815625 -3.42263125l22.6025625 -28.09175625c1.8081625 -2.19565625 2.4539500000000003 -5.101699999999999 1.8081625 -7.8785437499999995L92.62099375000001 25.168499999999998c-0.6457875 -2.77695 -2.45405625 -5.03720625 -5.03720625 -6.26418125L55.03611875 3.27630375c-1.2269750000000001 -0.581198125 -2.58315 -0.9040918750000001 -3.93921875 -0.9040918750000001Z" stroke-width="1.0625"></path>
  <path fill="#ffffff" d="M83.83815625 58.038850000000004c-0.0646 0 -0.0646 0 0 0h-0.0646c-0.06449375 0 -0.12909375 0 -0.12909375 -0.0646 -0.1292 0 -0.25829375 -0.06449375 -0.38749375 -0.06449375 -0.45209374999999996 -0.0646 -0.8394812500000001 -0.1292 -1.2269750000000001 -0.1292 -0.1938 0 -0.38749375 0 -0.6457875 -0.0646h-0.0646c-1.356175 -0.12909375 -2.4539500000000003 -0.25829375 -3.48723125 -0.5811875000000001 -0.45209374999999996 -0.19369375 -0.5811875000000001 -0.45209374999999996 -0.7103875 -0.7103875 0 -0.0646 -0.0646 -0.0646 -0.0646 -0.12909375l-0.8394812500000001 -0.25829375c0.38749375 -2.9706437500000002 0.25829375 -6.0704875000000005 -0.45209374999999996 -9.105625 -0.71028125 -3.0352437500000002 -1.9373624999999999 -5.8766875 -3.616325 -8.4598375l0.6457875 -0.5811875000000001v-0.1292c0 -0.32289375 0.06449375 -0.6457875 0.32289375 -0.9686812499999999 0.77488125 -0.71028125 1.7435625 -1.291575 2.9060437500000003 -2.0018562500000003 0.19369375 -0.1292 0.3873875 -0.1938 0.5811875000000001 -0.32289375 0.38749375 -0.1938 0.7103875 -0.38749375 1.097775 -0.6457875 0.0646 -0.0646 0.1938 -0.1292 0.32289375 -0.2584 0.0646 -0.06449375 0.1292 -0.06449375 0.1292 -0.12909375 0.90408125 -0.7749875 1.097775 -2.0665625 0.4519875 -2.9060437500000003 -0.32289375 -0.45209374999999996 -0.90408125 -0.7103875 -1.48526875 -0.7103875 -0.5165875 0 -0.9686812499999999 0.19369375 -1.42066875 0.5165875l-0.1292 0.1292c-0.1292 0.0646 -0.19369375 0.19369375 -0.32289375 0.25829375 -0.32289375 0.32289375 -0.5811875000000001 0.5811875000000001 -0.8394812500000001 0.90408125 -0.1292 0.1292 -0.2584 0.32289375 -0.45209374999999996 0.45209374999999996 -0.90408125 0.9686812499999999 -1.74366875 1.74366875 -2.58315 2.32485625 -0.19369375 0.12909375 -0.38749375 0.19369375 -0.5811875000000001 0.19369375 -0.1292 0 -0.25829375 0 -0.38749375 -0.0646h-0.1292l-0.77488125 0.5166937500000001c-0.8395875 -0.90408125 -1.74366875 -1.67906875 -2.64775 -2.45405625 -3.8747249999999998 -3.0351375 -8.58893125 -4.907900000000001 -13.4969375 -5.35999375l-0.0646 -0.8394812500000001c-0.0646 -0.0646 -0.0646 -0.0646 -0.12909375 -0.1292 -0.1938 -0.19369375 -0.45209374999999996 -0.38749375 -0.5166937500000001 -0.8394812500000001 -0.0646 -1.03328125 0.0646 -2.19565625 0.1938 -3.48723125v-0.0646c0 -0.1938 0.06449375 -0.45209374999999996 0.12909375 -0.6457875 0.0646 -0.38749375 0.1292 -0.7749875 0.1938 -1.2269750000000001v-0.58129375c0 -1.1623750000000002 -0.90408125 -2.13105625 -2.0019625000000003 -2.13105625 -0.5165875 0 -1.03328125 0.25829375 -1.420775 0.6457875 -0.3873875 0.38749375 -0.5811875000000001 0.90408125 -0.5811875000000001 1.48526875v0.5166937500000001c0 0.4519875 0.0646 0.8394812500000001 0.1938 1.2269750000000001 0.06449375 0.19369375 0.06449375 0.38749375 0.12909375 0.6457875v0.0646c0.1292 1.291575 0.32289375 2.4539500000000003 0.1938 3.48723125 -0.0646 0.45209374999999996 -0.32289375 0.6457875 -0.5166937500000001 0.8394812500000001 -0.0646 0.0646 -0.0646 0.0646 -0.12909375 0.1292l-0.0646 0.8394812500000001c-1.1624812500000001 0.1292 -2.32485625 0.25829375 -3.48723125 0.5166937500000001 -4.97260625 1.097775 -9.36391875 3.616325 -12.78665625 7.2327562499999996l-0.6457875 -0.4519875h-0.12909375c-0.1292 0 -0.25829375 0.06449375 -0.38749375 0.06449375 -0.19369375 0 -0.38749375 -0.06449375 -0.5811875000000001 -0.19369375 -0.8395875 -0.5811875000000001 -1.67906875 -1.420775 -2.58315 -2.38945625 -0.1292 -0.12909375 -0.25829375 -0.32289375 -0.45209374999999996 -0.4519875 -0.25829375 -0.32289375 -0.5165875 -0.5811875000000001 -0.8394812500000001 -0.90408125 -0.0646 -0.0646 -0.1938 -0.1292 -0.32289375 -0.2584 -0.0646 -0.06449375 -0.1292 -0.06449375 -0.1292 -0.12909375 -0.38749375 -0.32289375 -0.90408125 -0.5166937500000001 -1.42066875 -0.5166937500000001 -0.5811875000000001 0 -1.1624812500000001 0.2584 -1.485375 0.7103875 -0.6457875 0.8395875 -0.4519875 2.1311625 0.45209374999999996 2.9060437500000003 0.0646 0 0.0646 0.0646 0.1292 0.0646 0.12909375 0.0646 0.19369375 0.19369375 0.32289375 0.25829375 0.3873875 0.25829375 0.71028125 0.45209374999999996 1.097775 0.6457875 0.19369375 0.0646 0.38749375 0.1938 0.5811875000000001 0.32289375 1.1624812500000001 0.7103875 2.1311625 1.291575 2.9060437500000003 2.0019625000000003 0.32289375 0.32289375 0.32289375 0.6457875 0.32289375 0.9686812499999999v0.1292l0.6457875 0.5811875000000001c-0.12909375 0.19369375 -0.25829375 0.32289375 -0.32289375 0.5165875 -3.2289375000000002 5.101699999999999 -4.4559125 11.107587500000001 -3.61643125 17.04876875l-0.8394812500000001 0.25829375c0 0.0646 -0.0646 0.0646 -0.0646 0.1292 -0.12909375 0.25829375 -0.32289375 0.5165875 -0.71028125 0.7103875 -0.9686812499999999 0.32289375 -2.1311625 0.4519875 -3.4873375 0.5811875000000001h-0.06449375c-0.1938 0 -0.45209374999999996 0 -0.6457875 0.0646 -0.38749375 0 -0.7749875 0.06449375 -1.2270812500000001 0.12909375 -0.12909375 0 -0.25829375 0.0646 -0.3873875 0.0646 -0.0646 0 -0.1292 0 -0.1938 0.0646 -1.1623750000000002 0.25829375 -1.8727624999999999 1.356175 -1.67906875 2.3893500000000003 0.1938 0.9041874999999999 1.03328125 1.485375 2.0665625 1.485375 0.19369375 0 0.32289375 0 0.5165875 -0.0646 0.0646 0 0.1292 0 0.1292 -0.0646 0.1292 0 0.25829375 -0.0646 0.38749375 -0.0646 0.4519875 -0.12909375 0.77488125 -0.25829375 1.1623750000000002 -0.4519875 0.1938 -0.0646 0.38749375 -0.1938 0.5811875000000001 -0.25829375h0.0646c1.2269750000000001 -0.45209374999999996 2.32485625 -0.8395875 3.3581375 -0.9686812499999999h0.12909375c0.38749375 0 0.6457875 0.19369375 0.8395875 0.32289375 0.06449375 0 0.06449375 0.06449375 0.12909375 0.06449375l0.90408125 -0.12909375c1.549975 4.77880625 4.5205125 9.041025 8.4598375 12.140762500000001 0.90408125 0.7103875 1.8082687499999999 1.291575 2.7768437500000003 1.8727624999999999l-0.3873875 0.8395875c0 0.06449375 0.0646 0.06449375 0.0646 0.12909375 0.12909375 0.25829375 0.25829375 0.5811875000000001 0.12909375 1.03328125 -0.38749375 0.9686812499999999 -0.9686812499999999 1.9373624999999999 -1.67906875 3.0352437500000002v0.06449375c-0.12909375 0.1938 -0.25829375 0.32289375 -0.3873875 0.5166937500000001 -0.2584 0.32289375 -0.45209374999999996 0.6457875 -0.7103875 1.03328125 -0.0646 0.06449375 -0.1292 0.19369375 -0.1938 0.32289375 0 0.06449375 -0.06449375 0.12909375 -0.06449375 0.12909375 -0.5166937500000001 1.0978812500000001 -0.1292 2.32485625 0.8394812500000001 2.7768437500000003 0.25829375 0.1292 0.5165875 0.1938 0.7749875 0.1938 0.77488125 0 1.5498687500000001 -0.5166937500000001 1.93725625 -1.2269750000000001 0 -0.0646 0.0646 -0.1292 0.0646 -0.1292 0.0646 -0.1292 0.1292 -0.25829375 0.1938 -0.32289375 0.19369375 -0.45209374999999996 0.25829375 -0.77488125 0.3873875 -1.1623750000000002 0.0646 -0.1938 0.1292 -0.38749375 0.1938 -0.5811875000000001 0.4519875 -1.291575 0.77488125 -2.32485625 1.356175 -3.2289375000000002 0.25829375 -0.38749375 0.5811875000000001 -0.45209374999999996 0.8394812500000001 -0.58129375 0.0646 0 0.0646 0 0.1292 -0.06449375l0.4519875 -0.8395875c2.8414437500000003 1.0978812500000001 5.9412875000000005 1.67906875 9.041025 1.67906875 1.8727624999999999 0 3.8101249999999998 -0.19369375 5.618393749999999 -0.6457875 1.1623750000000002 -0.25829375 2.26025625 -0.5811875000000001 3.35803125 -0.9686812499999999l0.38749375 0.7103875c0.0646 0 0.0646 0 0.1292 0.0646 0.32289375 0.06449375 0.5811875000000001 0.19369375 0.8394812500000001 0.5811875000000001 0.5165875 0.90408125 0.90408125 2.0019625000000003 1.356175 3.2289375000000002v0.0646c0.0646 0.19369375 0.12909375 0.3873875 0.19369375 0.5811875000000001 0.1292 0.38749375 0.1938 0.77488125 0.38749375 1.1623750000000002 0.0646 0.1292 0.1292 0.19369375 0.19369375 0.32289375 0 0.0646 0.0646 0.1292 0.0646 0.1292 0.38749375 0.77488125 1.1624812500000001 1.2269750000000001 1.9373624999999999 1.2269750000000001 0.25829375 0 0.5166937500000001 -0.0646 0.7749875 -0.1938 0.4519875 -0.25829375 0.8394812500000001 -0.6457875 0.9686812499999999 -1.1623750000000002 0.12909375 -0.5165875 0.12909375 -1.097775 -0.1292 -1.6144687500000001 0 -0.0646 -0.0646 -0.0646 -0.0646 -0.12909375 -0.0646 -0.1292 -0.12909375 -0.2584 -0.19369375 -0.32289375 -0.1938 -0.38749375 -0.45209374999999996 -0.7103875 -0.7103875 -1.03328125 -0.1292 -0.1938 -0.25829375 -0.32289375 -0.38749375 -0.5166937500000001v-0.06449375c-0.7103875 -1.0978812500000001 -1.35606875 -2.0665625 -1.6789625000000001 -3.0352437500000002 -0.1292 -0.45209374999999996 0 -0.7103875 0.06449375 -1.03328125 0 -0.0646 0.0646 -0.0646 0.0646 -0.12909375l-0.32289375 -0.7749875c3.42263125 -2.0019625000000003 6.3286750000000005 -4.84340625 8.5244375 -8.3306375 1.1623750000000002 -1.8081625 2.06645625 -3.8101249999999998 2.7122437500000003 -5.8120875000000005l0.7749875 0.1292c0.0646 0 0.0646 -0.0646 0.12909375 -0.0646 0.2584 -0.1292 0.45209374999999996 -0.32289375 0.8395875 -0.32289375h0.12909375c1.03328125 0.12909375 2.1311625 0.5165875 3.3581375 0.9686812499999999h0.0646c0.19369375 0.0646 0.3873875 0.19369375 0.5811875000000001 0.25829375 0.38749375 0.19369375 0.7103875 0.32289375 1.1623750000000002 0.45209374999999996 0.1292 0 0.25829375 0.06449375 0.38749375 0.06449375 0.0646 0 0.1292 0 0.19369375 0.0646 0.1938 0.0646 0.32289375 0.0646 0.5166937500000001 0.0646 0.9686812499999999 0 1.8081625 -0.6457875 2.06645625 -1.48526875 0 -0.7749875 -0.71028125 -1.8082687499999999 -1.8727624999999999 -2.1311625Zm-29.89991875 -3.1643375000000002 -2.8414437500000003 1.356175 -2.8414437500000003 -1.356175 -0.7103875 -3.0351375 1.9373624999999999 -2.45405625h3.1643375000000002l1.9373624999999999 2.45405625 -0.6457875 3.0351375Zm16.855075 -6.7161687500000005c0.5165875 2.19565625 0.6457875 4.3913125 0.4519875 6.522475L61.36479375 51.839375c-0.90408125 -0.2584 -1.42066875 -1.1624812500000001 -1.2269750000000001 -2.0665625 0.0646 -0.25829375 0.19369375 -0.5165875 0.38749375 -0.7103875l7.81394375 -7.0390625c1.0978812500000001 1.8081625 1.9373624999999999 3.8747249999999998 2.45405625 6.13498125Zm-5.5537937500000005 -10.009706249999999 -8.4598375 6.00578125c-0.71028125 0.45209374999999996 -1.6789625000000001 0.32289375 -2.2601500000000003 -0.3873875 -0.1938 -0.1938 -0.2584 -0.45209374999999996 -0.32289375 -0.7103875l-0.58129375 -10.52629375c4.4559125 0.5165875 8.5244375 2.5185500000000003 11.624175000000001 5.6182875Zm-18.7278375 -5.295393750000001c0.7103875 -0.1292 1.356175 -0.2584 2.0665625 -0.38749375l-0.5811875000000001 10.3326c-0.0646 0.90408125 -0.7749875 1.6789625000000001 -1.74366875 1.6789625000000001 -0.25829375 0 -0.5811875000000001 -0.06449375 -0.77488125 -0.19369375l-8.5890375 -6.13498125c2.64775 -2.64775 5.9412875000000005 -4.4559125 9.6222125 -5.295393750000001Zm-12.72195 9.170118749999999 7.68485 6.8453687500000004c0.7103875 0.5811875000000001 0.7749875 1.67906875 0.19369375 2.3893500000000003 -0.19369375 0.2584 -0.4519875 0.45209374999999996 -0.77488125 0.5166937500000001l-10.009706249999999 2.9060437500000003c-0.38749375 -4.39141875 0.5811875000000001 -8.84733125 2.9060437500000003 -12.657456250000001ZM32.046062500000005 59.524224999999994l10.267999999999999 -1.74366875c0.8395875 -0.0646 1.6144687500000001 0.5165875 1.8082687499999999 1.356175 0.0646 0.38749375 0.0646 0.7103875 -0.0646 1.03328125l-3.9393249999999997 9.493012499999999c-3.616325 -2.32485625 -6.52236875 -5.8766875 -8.07234375 -10.1388ZM55.61730625 72.37537499999999c-1.48526875 0.32289375 -2.9706437500000002 0.5165875 -4.5205125 0.5165875 -2.26025625 0 -4.4559125 -0.38749375 -6.522475 -1.03328125l5.10180625 -9.234718749999999c0.5165875 -0.5811875000000001 1.35606875 -0.8394812500000001 2.06645625 -0.45209374999999996 0.32289375 0.1938 0.5811875000000001 0.45209374999999996 0.7749875 0.7103875l4.9725 8.976424999999999c-0.5811875000000001 0.1938 -1.2269750000000001 0.32289375 -1.8727624999999999 0.5166937500000001Zm12.59285625 -8.976424999999999c-1.6144687500000001 2.58315 -3.7455249999999998 4.64960625 -6.1995812500000005 6.264075l-4.06841875 -9.751412499999999c-0.1938 -0.77488125 0.12909375 -1.6144687500000001 0.90408125 -2.0018562500000003 0.25829375 -0.1292 0.5811875000000001 -0.1938 0.90408125 -0.1938l10.3326 1.74366875c-0.38749375 1.42066875 -1.03328125 2.7122437500000003 -1.8727624999999999 3.9393249999999997Z" stroke-width="1.0625"></path>
</svg>