<svg id="Model--Streamline-Carbon" xmlns="http://www.w3.org/2000/svg" viewBox="0 0 102 102" height="102" width="102">
  <desc>
    Model Streamline Icon: https://streamlinehq.com
  </desc>
  <defs></defs>
  <path d="M82.875 63.75c7.03035 0 12.75 -5.71965 12.75 -12.75s-5.71965 -12.75 -12.75 -12.75c-5.92365 0 -10.871287500000001 4.0793625 -12.297056249999999 9.5625h-11.883000000000001l17.74449375 -17.74449375C78.336 31.188731250000004 80.51784375 31.875 82.875 31.875c7.03035 0 12.75 -5.71965 12.75 -12.75s-5.71965 -12.75 -12.75 -12.75c-5.92365 0 -10.871287500000001 4.0793625 -12.297056249999999 9.5625H31.422056250000004C29.9962875 10.4543625 25.04865 6.375 19.125 6.375 12.09465 6.375 6.375 12.09465 6.375 19.125s5.71965 12.75 12.75 12.75c2.35715625 0 4.53931875 -0.68626875 6.4355625000000005 -1.80699375L43.30505625 47.8125h-11.883000000000001C29.9962875 42.3293625 25.04865 38.25 19.125 38.25c-7.03035 0 -12.75 5.71965 -12.75 12.75s5.71965 12.75 12.75 12.75c5.92365 0 10.871287500000001 -4.0793625 12.297056249999999 -9.5625h11.883000000000001L25.5605625 71.93199375C23.664 70.81126875 21.48215625 70.125 19.125 70.125c-7.03035 0 -12.75 5.71965 -12.75 12.75s5.71965 12.75 12.75 12.75c5.92365 0 10.871287500000001 -4.0793625 12.297056249999999 -9.5625h39.1558875c1.42576875 5.4831375 6.37340625 9.5625 12.297056249999999 9.5625 7.03035 0 12.75 -5.71965 12.75 -12.75s-5.71965 -12.75 -12.75 -12.75c-2.35715625 0 -4.53931875 0.68626875 -6.4355625000000005 1.80699375L58.69494375000001 54.1875h11.883000000000001c1.42576875 5.4831375 6.37340625 9.5625 12.297056249999999 9.5625Zm0 -19.125c3.515175 0 6.375 2.86078125 6.375 6.375s-2.859825 6.375 -6.375 6.375 -6.375 -2.86078125 -6.375 -6.375 2.859825 -6.375 6.375 -6.375Zm0 -31.875c3.515175 0 6.375 2.86078125 6.375 6.375s-2.859825 6.375 -6.375 6.375 -6.375 -2.86078125 -6.375 -6.375 2.859825 -6.375 6.375 -6.375ZM19.125 25.5c-3.515175 0 -6.375 -2.86078125 -6.375 -6.375s2.859825 -6.375 6.375 -6.375 6.375 2.86078125 6.375 6.375 -2.859825 6.375 -6.375 6.375Zm0 31.875c-3.515175 0 -6.375 -2.86078125 -6.375 -6.375s2.859825 -6.375 6.375 -6.375 6.375 2.86078125 6.375 6.375 -2.859825 6.375 -6.375 6.375Zm0 31.875c-3.515175 0 -6.375 -2.86078125 -6.375 -6.375s2.859825 -6.375 6.375 -6.375 6.375 2.86078125 6.375 6.375 -2.859825 6.375 -6.375 6.375Zm63.75 -12.75c3.515175 0 6.375 2.86078125 6.375 6.375s-2.859825 6.375 -6.375 6.375 -6.375 -2.86078125 -6.375 -6.375 2.859825 -6.375 6.375 -6.375Zm-10.94300625 -0.0605625c-0.59446875 1.0053375 -1.0537875 2.0903625000000003 -1.35405 3.2480624999999996H31.422056250000004c-0.30026250000000004 -1.15801875 -0.75958125 -2.242725 -1.35405 -3.2480624999999996L51 55.50744375000001l20.93199375 20.93199375ZM51 46.492875 30.06800625 25.56088125c0.59446875 -1.0053375 1.05538125 -2.0964187499999998 1.3680750000000002 -3.2480624999999996h39.1278375c0.31269375000000005 1.15164375 0.77360625 2.242725 1.3680750000000002 3.2480624999999996L51 46.492875Z" stroke-width="3.1875" fill="#000000"></path>
  <g id="_Transparent_Rectangle_">
    <path d="M0 0h102v102H0Z" stroke-width="3.1875" fill="none"></path>
  </g>
</svg>