<svg role="img" viewBox="0 0 102 102" xmlns="http://www.w3.org/2000/svg" id="Pytorch--Streamline-Simple-Icons" height="102" width="102">
  <desc>
    Pytorch Streamline Icon: https://streamlinehq.com
  </desc>
  <title>PyTorch</title>
  <path d="M51.02125 0 21.046 29.97525a41.92625 41.92625 0 0 0 0 59.5935 41.930499999999995 41.930499999999995 0 0 0 59.5935 0c16.932 -16.575 16.9405 -43.37125 0.36125 -59.59775l-7.412 7.40775c12.341999999999999 12.34625 12.341999999999999 32.444500000000005 0 44.786500000000004s-32.444500000000005 12.341999999999999 -44.786500000000004 0 -12.341999999999999 -32.444500000000005 0 -44.786500000000004l19.749750000000002 -19.7455 2.4735 -2.82625zm15.164 16.57075a5.639749999999999 5.639749999999999 0 0 0 -5.639749999999999 5.639749999999999 5.639749999999999 5.639749999999999 0 0 0 5.639749999999999 5.644A5.639749999999999 5.639749999999999 0 0 0 71.82499999999999 22.2105 5.639749999999999 5.639749999999999 0 0 0 66.18525 16.575z" fill="#000000" stroke-width="4.25"></path>
</svg>