<svg xmlns="http://www.w3.org/2000/svg" viewBox="-2.335 -2.335 56 56" fill="none" stroke="#000000" stroke-linecap="round" stroke-linejoin="round" id="Candy--Streamline-Tabler" height="56" width="56">
  <desc>
    Candy Streamline Icon: https://streamlinehq.com
  </desc>
  <path d="m15.078187499999999 24.152903749999997 9.07471625 -9.07471625a4.2775 4.2775 0 0 1 6.048385 0l6.05052375 6.0526625a4.2775 4.2775 0 0 1 0 6.048385l-9.07471625 9.07471625a4.2775 4.2775 0 0 1 -6.048385 0L15.078187499999999 30.199149999999996a4.2775 4.2775 0 0 1 0 -6.048385z" stroke-width="4.67"></path>
  <path d="m34.739716249999994 19.616615 6.6001825 -1.6511149999999999a3.208125 3.208125 0 0 0 1.4907087499999998 -5.381095L38.091137499999995 7.842796249999999a3.208125 3.208125 0 0 0 -5.21855 1.0052124999999998L30.2034275 15.078187499999999" stroke-width="4.67"></path>
  <path d="M19.616615 34.739716249999994 17.9655 41.33989875a3.208125 3.208125 0 0 1 -5.381095 1.4907087499999998L7.842796249999999 38.091137499999995a3.208125 3.208125 0 0 1 1.0052124999999998 -5.21855l6.230178749999999 -2.6691599999999998" stroke-width="4.67"></path>
</svg>