<svg xmlns="http://www.w3.org/2000/svg" viewBox="-2.335 -2.335 56 56" fill="none" stroke="#000000" stroke-linecap="round" stroke-linejoin="round" id="Palette--Streamline-Tabler" height="56" width="56">
  <desc>
    Palette Streamline Icon: https://streamlinehq.com
  </desc>
  <path d="M25.665 44.91375a19.24875 19.24875 0 0 1 0 -38.4975c10.6295875 0 19.24875 7.6610024999999995 19.24875 17.11 0 2.267075 -1.0137675 4.444322499999999 -2.8188725 6.048385 -1.805105 1.6040625 -4.25397375 2.5066149999999996 -6.805502499999999 2.5066149999999996H29.9425a4.2775 4.2775 0 0 0 -2.13875 8.0203125A2.780375 2.780375 0 0 1 25.665 44.91375" stroke-width="4.67"></path>
  <path d="M16.040625 22.456875a2.13875 2.13875 0 1 0 4.2775 0 2.13875 2.13875 0 1 0 -4.2775 0" stroke-width="4.67"></path>
  <path d="M24.595625 16.040625a2.13875 2.13875 0 1 0 4.2775 0 2.13875 2.13875 0 1 0 -4.2775 0" stroke-width="4.67"></path>
  <path d="M33.150625 22.456875a2.13875 2.13875 0 1 0 4.2775 0 2.13875 2.13875 0 1 0 -4.2775 0" stroke-width="4.67"></path>
</svg>