<svg xmlns="http://www.w3.org/2000/svg" viewBox="-2.335 -2.335 56 56" fill="none" stroke="#000000" stroke-linecap="round" stroke-linejoin="round" id="Cube--Streamline-Tabler" height="56" width="56">
  <desc>
    Cube Streamline Icon: https://streamlinehq.com
  </desc>
  <path d="M44.91375 34.237109999999994V17.0886125a4.234725 4.234725 0 0 0 -2.13875 -3.67223375l-14.97125 -8.57211a4.31172 4.31172 0 0 0 -4.2775 0L8.555 13.416378749999998c-1.32388625 0.75925625 -2.13875 2.1601375 -2.13875 3.6743724999999996v17.1484975c0 1.5163737499999999 0.81486375 2.91511625 2.13875 3.67223375l14.97125 8.57211a4.31172 4.31172 0 0 0 4.2775 0l14.97125 -8.57211c1.32388625 -0.75925625 2.13875 -2.1601375 2.13875 -3.6743724999999996z" stroke-width="4.67"></path>
  <path d="M25.665 47.052499999999995V25.665" stroke-width="4.67"></path>
  <path d="m25.665 25.665 18.671287500000002 -10.7793" stroke-width="4.67"></path>
  <path d="M6.9937125 14.8857 25.665 25.665" stroke-width="4.67"></path>
</svg>