<svg viewBox="0 0 82 82" fill="none" xmlns="http://www.w3.org/2000/svg" id="Gitlab--Streamline-Unicons" height="82" width="82">
  <desc>
    Gitlab Streamline Icon: https://streamlinehq.com
  </desc>
  <path d="m80.94561666666667 45.47002499999999 -4.282791666666666 -13.178424999999999 -8.493833333333333 -26.156291666666664c-0.22379166666666667 -0.6727416666666666 -0.654975 -1.25665 -1.2320499999999999 -1.6683583333333334 -0.5767333333333333 -0.4113666666666666 -1.2696333333333332 -0.62935 -1.9782499999999998 -0.6218333333333332 -0.7055416666666666 -0.0034166666666666664 -1.394 0.21969166666666665 -1.9635583333333333 0.6361833333333333 -0.5699 0.41649166666666665 -0.991175 1.0045 -1.2026666666666666 1.6779249999999999l-8.063675 24.822425H28.287608333333328L20.211633333333335 6.155125c-0.21183333333333332 -0.6724 -0.63345 -1.259725 -1.20335 -1.6755333333333333 -0.5695583333333333 -0.41546666666666665 -1.2573333333333332 -0.6378916666666666 -1.962875 -0.634475h-0.023916666666666666c-0.708275 0.00034166666666666666 -1.3984416666666666 0.22344999999999998 -1.9724416666666666 0.6382333333333333 -0.5740000000000001 0.4147833333333333 -1.0031333333333334 0.9997166666666667 -1.2259 1.671775L5.3576749999999995 32.287499999999994l-0.008199999999999999 0.024258333333333333 0.0040999999999999995 -0.020158333333333334 -4.295091666666667 13.178424999999999c-0.316725 0.9669166666666665 -0.31809166666666666 2.0093416666666664 -0.0037583333333333336 2.977283333333333 0.3139916666666666 0.9672583333333333 0.9272833333333332 1.8101500000000001 1.751383333333333 2.4067l37.08108333333333 26.939733333333333 0.016058333333333334 0.011958333333333333 0.011958333333333333 0.0040999999999999995 0.0040999999999999995 0.004441666666666667c0.058083333333333334 0.04031666666666667 0.11855833333333334 0.07824166666666667 0.18074166666666666 0.11240833333333332l0.024258333333333333 0.016058333333333334 0.016058333333333334 0.007516666666666667 0.011958333333333333 0.004441666666666667h0.007858333333333333l0.020158333333333334 0.011616666666666666 0.10045 0.04031666666666667 0.09259166666666666 0.039975h0.0040999999999999995l0.016058333333333334 0.008199999999999999 0.019816666666666663 0.007858333333333333h0.008199999999999999l0.023916666666666666 0.008199999999999999h0.012299999999999998c0.044074999999999996 0.016058333333333334 0.08814999999999999 0.024599999999999997 0.13666666666666666 0.03655833333333333l0.05193333333333333 0.011616666666666666h0.008199999999999999l0.020158333333333334 0.008199999999999999 0.02801666666666667 0.0037583333333333336h0.02801666666666667c0.08780833333333334 0.014691666666666665 0.17664166666666667 0.02255 0.26513333333333333 0.024258333333333333H41c0.0902 0 0.18005833333333332 -0.006833333333333333 0.2692333333333333 -0.019816666666666663h0.02801666666666667l0.028358333333333333 -0.008199999999999999 0.016058333333333334 -0.0037583333333333336h0.007858333333333333l0.056375 -0.016058333333333334 0.13666666666666666 -0.03245833333333333h0.007858333333333333l0.024258333333333333 -0.012299999999999998h0.007858333333333333l0.020158333333333334 -0.007858333333333333 0.016058333333333334 -0.0037583333333333336 0.10454999999999999 -0.04441666666666666 0.09225 -0.04031666666666667 0.020158333333333334 -0.007858333333333333h0.008199999999999999l0.011958333333333333 -0.008199999999999999 0.016058333333333334 -0.007516666666666667 0.02801666666666667 -0.016058333333333334c0.06115833333333333 -0.032799999999999996 0.12026666666666667 -0.06901666666666666 0.17698333333333333 -0.10899166666666665l0.016058333333333334 -0.011958333333333333 0.019816666666666663 -0.011958333333333333 37.08518333333333 -26.943491666666667c0.8227333333333332 -0.5972333333333334 1.4346583333333331 -1.4391 1.7479666666666667 -2.4063583333333334 0.31330833333333336 -0.9665749999999999 0.3119416666666667 -2.007975 -0.004441666666666667 -2.9738666666666664h0.0040999999999999995ZM64.98260833333333 8.586083333333333l7.272374999999999 22.395566666666667h-14.544749999999999l7.272374999999999 -22.395566666666667Zm-47.96111666666666 0 7.2843333333333335 22.399666666666665h-14.544749999999999l7.260416666666666 -22.399666666666665ZM5.032066666666667 47.78823333333333c-0.17425 -0.12744166666666665 -0.3040833333333333 -0.306475 -0.3707083333333333 -0.5125 -0.06628333333333333 -0.2056833333333333 -0.06594166666666666 -0.4270833333333333 0.0010249999999999999 -0.6327666666666667l3.1901416666666664 -9.795583333333333 23.392208333333333 29.989791666666665 -26.212666666666664 -19.048941666666668Zm6.002741666666666 -13.017841666666666h14.504433333333331l10.338149999999999 31.849483333333332 -24.842583333333334 -31.849483333333332Zm28.78815 42.975516666666664 -0.024258333333333333 -0.0205 -0.044074999999999996 -0.04031666666666667 -0.08063333333333333 -0.07243333333333334 0.008199999999999999 0.0040999999999999995 0.007858333333333333 0.008199999999999999c0.05466666666666666 0.05295833333333333 0.11206666666666668 0.10284166666666665 0.17288333333333333 0.14896666666666666l0.008199999999999999 0.007516666666666667 -0.048516666666666666 -0.03553333333333333ZM41 70.13562499999999l-6.083033333333333 -18.743491666666667 -5.400041666666667 -16.625841666666666h22.982208333333332L41 70.13562499999999Zm1.2457166666666666 7.553908333333333 -0.04031666666666667 0.031775 -0.007858333333333333 0.0040999999999999995 -0.020158333333333334 0.0205 -0.048174999999999996 0.03553333333333333 0.007858333333333333 -0.007516666666666667c0.060816666666666665 -0.0451 0.11821666666666666 -0.093275 0.17288333333333333 -0.14486666666666667l0.0040999999999999995 -0.007858333333333333 0.007858333333333333 -0.008199999999999999 -0.07619166666666667 0.07653333333333333Zm14.2352 -42.92734166666666h14.504433333333331l-2.973183333333333 3.805141666666666 -21.885458333333332 28.045024999999995 10.354208333333332 -31.850166666666663Zm20.491116666666667 13.021941666666667 -26.208566666666666 19.044841666666663 23.400066666666664 -29.98500833333333 3.178183333333333 9.791141666666666c0.06799166666666667 0.20602499999999999 0.068675 0.4281083333333333 0.0023916666666666665 0.6348166666666666s-0.19679999999999997 0.38676666666666665 -0.372075 0.5142083333333333Z" fill="#000000" stroke-width="3.4167"></path>
</svg>