<svg viewBox="0 0 82 82" fill="none" xmlns="http://www.w3.org/2000/svg" id="Instagram--Streamline-Unicons" height="82" width="82">
  <desc>
    Instagram Streamline Icon: https://streamlinehq.com
  </desc>
  <path d="M62.455983333333336 14.722416666666666c-0.95325 0 -1.885658333333333 0.2825583333333333 -2.6786666666666665 0.8124833333333333 -0.7926666666666666 0.529925 -1.4107416666666666 1.2829583333333332 -1.7759833333333335 2.163775 -0.3649 0.8811583333333334 -0.4598833333333333 1.8504666666666665 -0.27401666666666663 2.7859499999999997 0.18620833333333334 0.9351416666666666 0.6450666666666667 1.7944333333333333 1.3195166666666667 2.468541666666667 0.6741083333333333 0.67445 1.5333999999999999 1.1336499999999998 2.468541666666667 1.3195166666666667 0.9354833333333332 0.18620833333333334 1.9047916666666667 0.09088333333333333 2.7859499999999997 -0.2743583333333333 0.8811583333333334 -0.3649 1.63385 -0.982975 2.163775 -1.7756416666666668 0.5295833333333333 -0.7930083333333333 0.8124833333333333 -1.725075 0.8124833333333333 -2.6786666666666665 0 -1.2788583333333334 -0.5077166666666667 -2.5054416666666666 -1.4121083333333333 -3.4094916666666664 -0.90405 -0.9043916666666666 -2.130291666666667 -1.4121083333333333 -3.4094916666666664 -1.4121083333333333Zm18.4828 9.723491666666666c-0.0779 -3.3336416666666664 -0.7021249999999999 -6.632091666666667 -1.8480750000000001 -9.763808333333333 -1.021925 -2.67935 -2.6117 -5.1058666666666666 -4.661016666666667 -7.111791666666667 -1.989525 -2.0595666666666665 -4.421166666666666 -3.6397749999999998 -7.111791666666667 -4.6207 -3.123175 -1.1808 -6.425725 -1.8193749999999997 -9.763808333333333 -1.8883916666666665C53.29521666666666 0.82 51.928891666666665 0.82 41 0.82s-12.295216666666665 0 -16.554091666666668 0.24121666666666663c-3.3384249999999995 0.06901666666666666 -6.640291666666666 0.7075916666666666 -9.763808333333333 1.8883916666666665 -2.6851583333333333 0.9908333333333332 -5.115091666666666 2.5696749999999997 -7.111791666666667 4.6207 -2.0595666666666665 1.989525 -3.6397749999999998 4.421508333333334 -4.6207 7.111791666666667 -1.1808 3.1235166666666667 -1.8193749999999997 6.4253833333333334 -1.8883916666666665 9.763808333333333C0.82 28.704783333333335 0.82 30.07110833333333 0.82 41s0 12.295216666666665 0.24121666666666663 16.554091666666668c0.06901666666666666 3.338083333333333 0.7075916666666666 6.640633333333333 1.8883916666666665 9.763808333333333 0.980925 2.690625 2.5611333333333333 5.1222666666666665 4.6207 7.111791666666667 1.9967 2.0510249999999997 4.426633333333333 3.6298666666666666 7.111791666666667 4.6207 3.1235166666666667 1.1804583333333332 6.4253833333333334 1.8193749999999997 9.763808333333333 1.8883916666666665C28.704783333333335 81.18 30.07110833333333 81.18 41 81.18s12.295216666666665 0 16.554091666666668 -0.24121666666666663c3.338083333333333 -0.06901666666666666 6.640633333333333 -0.7079333333333333 9.763808333333333 -1.8883916666666665 2.690625 -0.9812666666666666 5.1222666666666665 -2.5611333333333333 7.111791666666667 -4.6207 2.0582000000000003 -1.9984083333333331 3.6496833333333334 -4.426975 4.661016666666667 -7.111791666666667 1.1459499999999998 -3.1317166666666663 1.7701749999999998 -6.429824999999999 1.8480750000000001 -9.763808333333333 0 -4.258875 0.24121666666666663 -5.6252 0.24121666666666663 -16.554091666666668s0 -12.295216666666665 -0.24121666666666663 -16.554091666666668Zm-7.2324 32.62609166666666c-0.029041666666666667 2.5505416666666667 -0.49097499999999994 5.077508333333333 -1.3659833333333333 7.473616666666666 -0.6416499999999999 1.74865 -1.671775 3.3285166666666663 -3.0135 4.6207 -1.3034583333333334 1.3277166666666667 -2.8802499999999998 2.356133333333333 -4.6207 3.0135 -2.395766666666667 0.8750083333333333 -4.922733333333333 1.3366 -7.473616666666666 1.3659833333333333 -4.018 0.2009 -5.504591666666666 0.24121666666666663 -16.072 0.24121666666666663s-12.054 0 -16.072 -0.24121666666666663c-2.648258333333333 0.049541666666666664 -5.285241666666666 -0.35806666666666664 -7.794783333333333 -1.2054 -1.6642583333333332 -0.6905083333333333 -3.1686166666666664 -1.716533333333333 -4.4198 -3.0135 -1.3335249999999998 -1.2908166666666667 -2.35135 -2.8720499999999998 -2.973183333333333 -4.6207 -0.9812666666666666 -2.4299333333333335 -1.5252 -5.014983333333333 -1.6072 -7.6342 0 -4.018 -0.24121666666666663 -5.504591666666666 -0.24121666666666663 -16.072s0 -12.054 0.24121666666666663 -16.072c0.017766666666666667 -2.6072583333333332 0.49370833333333325 -5.191283333333334 1.4063 -7.6342 0.7072499999999999 -1.6960333333333333 1.7930666666666668 -3.2075666666666662 3.1740833333333334 -4.4198 1.220775 -1.3813583333333332 2.729233333333333 -2.4787916666666665 4.4198 -3.2144 2.4490666666666665 -0.8838916666666666 5.030358333333333 -1.3458249999999998 7.6342 -1.3659833333333333 4.018 0 5.504591666666666 -0.24121666666666663 16.072 -0.24121666666666663s12.054 0 16.072 0.24121666666666663c2.5505416666666667 0.029041666666666667 5.077508333333333 0.49097499999999994 7.473616666666666 1.3659833333333333 1.8255249999999998 0.6775249999999999 3.4644999999999997 1.7794 4.781283333333333 3.2144 1.3167833333333334 1.2341 2.345883333333333 2.7432416666666666 3.0135 4.4198 0.8931166666666667 2.446675 1.3553916666666666 5.029674999999999 1.3659833333333333 7.6342 0.2009 4.018 0.24121666666666663 5.504591666666666 0.24121666666666663 16.072s-0.04031666666666667 12.054 -0.24121666666666663 16.072ZM41 20.387591666666665c-4.075058333333334 0.008199999999999999 -8.056158333333332 1.22385 -11.440708333333333 3.4935416666666663 -3.3842083333333335 2.2696916666666667 -6.019825 5.491608333333333 -7.574066666666667 9.258825 -1.5538999999999998 3.7668749999999998 -1.9563833333333331 7.910266666666666 -1.1565416666666668 11.905716666666667 0.8001833333333332 3.9957916666666664 2.766475 7.664949999999999 5.650483333333333 10.543833333333332 2.8843499999999995 2.8785416666666666 6.557266666666666 4.837658333333333 10.554766666666666 5.629641666666666 3.997158333333333 0.792325 8.139524999999999 0.3816416666666666 11.903666666666666 -1.179775 3.7641416666666663 -1.5610749999999998 6.980933333333334 -4.203183333333333 9.243791666666665 -7.592175 2.2635416666666663 -3.3886499999999997 3.4713333333333334 -7.372141666666667 3.4713333333333334 -11.4472 0.005125 -2.711808333333333 -0.525825 -5.3976500000000005 -1.5624416666666665 -7.903433333333333 -1.036275 -2.5057833333333335 -2.557716666666667 -4.7819666666666665 -4.4772 -6.697691666666666s-4.198741666666667 -3.4327249999999996 -6.7062333333333335 -4.464558333333333c-2.5081749999999996 -1.0314916666666667 -5.195041666666667 -1.5573166666666665 -7.9068499999999995 -1.546725Zm0 33.992416666666664c-2.646208333333333 0 -5.232966666666667 -0.7848083333333332 -7.4333 -2.255 -2.2003333333333335 -1.4701916666666666 -3.9154999999999993 -3.559825 -4.9281999999999995 -6.004791666666667 -1.0127 -2.444625 -1.2774916666666667 -5.134908333333333 -0.7612333333333333 -7.730549999999999 0.5162583333333334 -2.5953 1.7903333333333333 -4.979791666666666 3.6616416666666667 -6.850758333333333 1.8709666666666664 -1.8709666666666664 4.255458333333333 -3.145383333333333 6.850758333333333 -3.6616416666666667 2.595641666666667 -0.5162583333333334 5.285925 -0.25146666666666667 7.730549999999999 0.7612333333333333 2.4449666666666667 1.0127 4.534599999999999 2.7278666666666664 6.004791666666667 4.9281999999999995 1.4701916666666666 2.2003333333333335 2.255 4.787091666666666 2.255 7.4333 0 1.7571916666666665 -0.3461083333333333 3.4969583333333336 -1.0185083333333331 5.120216666666666 -0.6724 1.6236 -1.6581083333333333 3.0982333333333334 -2.900408333333333 4.340875 -1.2426416666666666 1.2426416666666666 -2.717275 2.2280083333333334 -4.340875 2.900408333333333 -1.6232583333333332 0.6724 -3.3630249999999995 1.0185083333333331 -5.120216666666666 1.0185083333333331Z" fill="#000000" stroke-width="3.4167"></path>
</svg>