<svg xmlns="http://www.w3.org/2000/svg" viewBox="-2.335 -2.335 56 56" fill="none" stroke="#000000" stroke-linecap="round" stroke-linejoin="round" id="Json--Streamline-Tabler" height="56" width="56">
  <desc>
    Json Streamline Icon: https://streamlinehq.com
  </desc>
  <path d="M42.775 34.22V17.11l6.41625 17.11V17.11" stroke-width="4.67"></path>
  <path d="M32.08125 17.11a4.2775 4.2775 0 0 1 4.2775 4.2775v8.555a4.2775 4.2775 0 1 1 -8.555 0v-8.555a4.2775 4.2775 0 0 1 4.2775 -4.2775z" stroke-width="4.67"></path>
  <path d="M2.13875 17.11h6.41625v13.901875a3.208125 3.208125 0 0 1 -6.41625 0V29.9425" stroke-width="4.67"></path>
  <path d="M14.97125 32.08125a2.13875 2.13875 0 0 0 2.13875 2.13875h2.13875a2.13875 2.13875 0 0 0 2.13875 -2.13875v-4.2775a2.13875 2.13875 0 0 0 -2.13875 -2.13875H17.11a2.13875 2.13875 0 0 1 -2.13875 -2.13875V19.24875a2.13875 2.13875 0 0 1 2.13875 -2.13875h2.13875a2.13875 2.13875 0 0 1 2.13875 2.13875" stroke-width="4.67"></path>
</svg>