<svg role="img" viewBox="0 0 56 56" xmlns="http://www.w3.org/2000/svg" id="Malt--Streamline-Simple-Icons" height="56" width="56">
  <desc>
    Malt Streamline Icon: https://streamlinehq.com
  </desc>
  <title>Malt</title>
  <path d="M47.12166666666667 20.022333333333332c-0.16100000000000003 0 -0.665 0.06066666666666667 -1.1293333333333333 0.2636666666666667 -1.008 0.42233333333333334 -1.393 0.7256666666666667 -1.393 1.3533333333333333v11.720333333333333c0 0.6463333333333334 0.6066666666666667 0.8283333333333334 1.715 0.8283333333333334 1.0896666666666668 0 1.5143333333333335 -0.20299999999999999 1.5143333333333335 -0.8283333333333334V20.66866666666667c0 -0.4036666666666667 -0.2636666666666667 -0.6463333333333334 -0.7070000000000001 -0.6463333333333334zm8.171333333333333 11.440333333333333c-0.8049999999999999 0.20299999999999999 -1.05 0.2636666666666667 -1.33 0.2636666666666667 -0.343 0 -0.46666666666666673 -0.10266666666666667 -0.46666666666666673 -0.46666666666666673v-5.042333333333334h1.838666666666667c0.483 0 0.665 -0.18200000000000002 0.665 -0.665 0 -0.4036666666666667 -0.18200000000000002 -0.6066666666666667 -0.665 -0.6066666666666667h-1.8363333333333336v-1.9576666666666667c0 -0.6043333333333334 -0.20299999999999999 -0.847 -0.6253333333333334 -0.847 -0.4036666666666667 0 -0.9683333333333334 0.36400000000000005 -2.1793333333333336 1.393 -1.2320000000000002 1.05 -1.9366666666666668 1.736 -1.9366666666666668 2.219 0 0.2823333333333333 0.20066666666666666 0.4643333333333334 0.5226666666666667 0.4643333333333334h0.9893333333333334v5.448333333333333c0 1.5936666666666668 0.7863333333333334 2.5200000000000005 2.1583333333333337 2.5200000000000005 0.9100000000000001 0 1.5750000000000002 -0.3406666666666667 2.3613333333333335 -0.9473333333333335 0.7256666666666667 -0.5646666666666667 1.1900000000000002 -1.008 1.1900000000000002 -1.3906666666666667 0 -0.32433333333333336 -0.24033333333333334 -0.5063333333333334 -0.686 -0.38500000000000006zm-35.49 -7.182c-0.30333333333333334 0 -0.665 0.06066666666666667 -1.1293333333333333 0.26133333333333336 -1.0103333333333333 0.44333333333333336 -1.393 0.7280000000000001 -1.393 1.3533333333333333v7.466666666666668c0 0.6440000000000001 0.6066666666666667 0.826 1.715 0.826 1.0896666666666668 0 1.5143333333333335 -0.20299999999999999 1.5143333333333335 -0.8283333333333334v-8.432666666666666c0 -0.4036666666666667 -0.2636666666666667 -0.6463333333333334 -0.7070000000000001 -0.6463333333333334Zm4.237333333333334 0c-0.8283333333333334 0 -1.5750000000000002 0.2823333333333333 -2.300666666666667 0.847 -0.4036666666666667 0.32200000000000006 -0.7466666666666667 0.686 -0.7466666666666667 0.9893333333333334 0 0.26133333333333336 0.18200000000000002 0.4036666666666667 0.44333333333333336 0.4036666666666667 0.44333333333333336 0 0.5856666666666667 -0.18200000000000002 0.9706666666666667 -0.18200000000000002 0.3826666666666667 0 0.5833333333333334 0.4036666666666667 0.5833333333333334 1.1106666666666667v5.910333333333334c0 0.6463333333333334 0.6066666666666667 0.8283333333333334 1.715 0.8283333333333334 1.0896666666666668 0 1.5143333333333335 -0.20299999999999999 1.5143333333333335 -0.8283333333333334v-6.477333333333333c0 -1.5330000000000001 -0.9100000000000001 -2.601666666666667 -2.1793333333333336 -2.601666666666667zm5.670000000000001 0c-0.7863333333333334 0 -1.6146666666666667 0.2823333333333333 -2.340333333333333 0.847 -0.4036666666666667 0.32200000000000006 -0.7466666666666667 0.686 -0.7466666666666667 0.9893333333333334 0 0.26133333333333336 0.18200000000000002 0.4036666666666667 0.44333333333333336 0.4036666666666667 0.44333333333333336 0 0.5833333333333334 -0.18200000000000002 1.008 -0.18200000000000002s0.6253333333333334 0.4036666666666667 0.6253333333333334 1.1106666666666667v5.910333333333334c0 0.6463333333333334 0.6066666666666667 0.8283333333333334 1.715 0.8283333333333334 1.0896666666666668 0 1.5143333333333335 -0.20299999999999999 1.5143333333333335 -0.8283333333333334v-6.477333333333333c0 -1.5330000000000001 -0.9100000000000001 -2.601666666666667 -2.219 -2.601666666666667zm12.448333333333334 0a3.0100000000000002 3.0100000000000002 0 0 0 -1.1293333333333333 0.26133333333333336c-0.6066666666666667 0.2636666666666667 -0.9286666666666668 0.46666666666666673 -1.0896666666666668 0.7280000000000001 -0.6066666666666667 -0.7070000000000001 -1.393 -0.9286666666666668 -2.279666666666667 -0.9286666666666668 -2.6040000000000005 0 -4.4590000000000005 2.198 -4.4590000000000005 5.327 0 2.622666666666667 1.4116666666666666 4.559333333333334 3.4090000000000003 4.559333333333334 0.6066666666666667 0 1.1503333333333334 -0.24266666666666667 1.7966666666666669 -0.847 0.504 -0.46666666666666673 0.7466666666666667 -0.7676666666666667 0.7466666666666667 -1.05a0.3266666666666667 0.3266666666666667 0 0 0 -0.343 -0.343c-0.2823333333333333 0 -0.5856666666666667 0.24266666666666667 -0.9706666666666667 0.24266666666666667 -0.826 0 -1.3906666666666667 -1.271666666666667 -1.3906666666666667 -3.1500000000000004 0 -1.8736666666666668 0.7466666666666667 -3.1453333333333338 1.8760000000000003 -3.1453333333333338 0.7466666666666667 0 1.3113333333333335 0.5646666666666667 1.3113333333333335 1.5330000000000001v5.891666666666667c0 0.6463333333333334 0.6066666666666667 0.8283333333333334 1.715 0.8283333333333334 1.0896666666666668 0 1.5143333333333335 -0.20299999999999999 1.5143333333333335 -0.8283333333333334v-8.432666666666666c0 -0.4036666666666667 -0.2636666666666667 -0.6463333333333334 -0.7070000000000001 -0.6463333333333334ZM8.164333333333333 31.647000000000002l-0.49 0.49 1.4443333333333335 1.4420000000000002c0.7093333333333334 0.7093333333333334 1.8433333333333335 1.3953333333333333 2.9026666666666667 0.336 0.7910000000000001 -0.7933333333333334 0.6066666666666667 -1.6216666666666666 0.17033333333333334 -2.2866666666666666 -0.14 0.009333333333333334 -4.027333333333334 0.018666666666666668 -4.027333333333334 0.018666666666666668zm-2.247 -5.425000000000001 0.49 -0.49 -1.4186666666666667 -1.4163333333333334c-0.7093333333333334 -0.7070000000000001 -1.7850000000000001 -1.449 -2.9003333333333337 -0.33366666666666667 -0.819 0.8166666666666667 -0.6370000000000001 1.6146666666666667 -0.20299999999999999 2.263333333333333Zm6.673333333333334 0.9706666666666667c-0.08633333333333333 0.10033333333333333 -3.5256666666666665 3.5560000000000005 -3.5256666666666665 3.5560000000000005h2.6926666666666668c1.0033333333333334 0 2.289 -0.2356666666666667 2.289 -1.8130000000000002 0 -1.1573333333333333 -0.6906666666666667 -1.5936666666666668 -1.4560000000000002 -1.743zm-7.569333333333335 -0.07233333333333333H2.289c-1.0033333333333334 0 -2.289 0.31500000000000006 -2.289 1.8153333333333335 0 1.1176666666666666 0.7163333333333334 1.5773333333333335 1.4956666666666667 1.7383333333333335 0.09333333333333334 -0.10733333333333334 3.5256666666666665 -3.5536666666666665 3.5256666666666665 -3.5536666666666665zm3.462666666666667 7.093333333333334 -1.4420000000000002 -1.4420000000000002 -1.4186666666666667 1.4163333333333334a6.097 6.097 0 0 1 -0.3196666666666667 0.2986666666666667c0.16333333333333336 0.7770000000000001 0.6206666666666667 1.491 1.7383333333333335 1.491s1.5773333333333335 -0.7163333333333334 1.7383333333333335 -1.4956666666666667c-0.10033333333333333 -0.08633333333333333 -0.19833333333333336 -0.17033333333333334 -0.29633333333333334 -0.26833333333333337zM5.623333333333334 23.683333333333337l1.4186666666666667 1.4163333333333334 1.4420000000000002 -1.4420000000000002a5.25 5.25 0 0 1 0.2986666666666667 -0.2753333333333333c-0.15166666666666667 -0.7630000000000001 -0.5856666666666667 -1.4536666666666667 -1.743 -1.4536666666666667s-1.5913333333333335 0.6930000000000001 -1.7406666666666668 1.4583333333333335c0.10733333333333334 0.09333333333333334 0.21466666666666667 0.18666666666666668 0.3266666666666667 0.29633333333333334zm6.398000000000001 0.273c-1.0616666666666668 -1.0593333333333335 -2.1933333333333334 -0.37333333333333335 -2.9026666666666667 0.336l-6.696666666666667 6.696666666666667c-0.7070000000000001 0.7070000000000001 -1.449 1.7850000000000001 -0.33366666666666667 2.9003333333333337 1.1153333333333333 1.1153333333333333 2.1933333333333334 0.37333333333333335 2.9003333333333337 -0.33366666666666667l6.696666666666667 -6.696666666666667c0.7093333333333334 -0.7093333333333334 1.3953333333333333 -1.8433333333333335 0.336 -2.9026666666666667Z" fill="#000000" stroke-width="2.3333"></path>
</svg>