<svg xmlns="http://www.w3.org/2000/svg" viewBox="-2.335 -2.335 56 56" fill="none" stroke="#000000" stroke-linecap="round" stroke-linejoin="round" id="Map--Streamline-Lucide" height="56" width="56">
  <desc>
    Map Streamline Icon: https://streamlinehq.com
  </desc>
  <path d="M30.1692075 11.876478749999999a4.2775 4.2775 0 0 0 3.8240849999999997 0l7.8256862499999995 -3.9139125A2.13875 2.13875 0 0 1 44.91375 9.878886249999999v27.299004999999998a2.13875 2.13875 0 0 1 -1.18272875 1.9120424999999999l-9.737728749999999 4.86993375a4.2775 4.2775 0 0 1 -3.8240849999999997 0l-9.008415 -4.5042075a4.2775 4.2775 0 0 0 -3.8240849999999997 0l-7.8256862499999995 3.9139125A2.13875 2.13875 0 0 1 6.41625 41.45111375V14.1542475a2.13875 2.13875 0 0 1 1.18272875 -1.9120424999999999l9.737728749999999 -4.86993375a4.2775 4.2775 0 0 1 3.8240849999999997 0z" stroke-width="4.67"></path>
  <path d="M32.08125 12.327755v32.08125" stroke-width="4.67"></path>
  <path d="M19.24875 6.9209950000000005v32.08125" stroke-width="4.67"></path>
</svg>