<svg xmlns="http://www.w3.org/2000/svg" fill="none" viewBox="0 0 56 56" id="Sticky-Note-2--Streamline-Rounded-Material" height="56" width="56">
  <desc>
    Sticky Note 2 Streamline Icon: https://streamlinehq.com
  </desc>
  <path fill="#000000" d="M10.5 45.5h23.333333333333336v-9.916666666666668c0 -0.49583333333333335 0.1677666666666667 -0.9115166666666668 0.5034166666666667 -1.2471666666666668 0.33518333333333333 -0.33518333333333333 0.75075 -0.5028333333333334 1.2465833333333334 -0.5028333333333334H45.5V10.5H10.5v35Zm0 3.5c-0.9625 0 -1.786365 -0.3427666666666667 -2.4715833333333337 -1.0284166666666668C7.342801666666667 47.2864 7 46.462500000000006 7 45.5V10.5c0 -0.9625 0.34280166666666667 -1.786551666666667 1.0284166666666668 -2.4721666666666673C8.713635 7.342615 9.537500000000001 7 10.5 7h35c0.9625 0 1.786516666666667 0.342615 2.4721666666666673 1.0278333333333334C48.65735 8.713448333333334 49 9.537500000000001 49 10.5v23.041666666666668c0 0.48381666666666673 -0.09718333333333334 0.9450000000000002 -0.2916666666666667 1.3836666666666666 -0.19448333333333334 0.4386666666666667 -0.4471833333333333 0.8135166666666668 -0.7583333333333334 1.1246666666666667L36.05 47.95c-0.31115000000000004 0.31115000000000004 -0.686 0.5638500000000001 -1.1246666666666667 0.7583333333333334 -0.4386666666666667 0.19448333333333334 -0.89985 0.2916666666666667 -1.3836666666666666 0.2916666666666667H10.5Zm15.166666666666668 -17.5h-6.416666666666667c-0.49583333333333335 0 -0.9114000000000001 -0.16881666666666667 -1.2465833333333334 -0.5063333333333334 -0.33565000000000006 -0.33716666666666667 -0.5034166666666667 -0.7551833333333333 -0.5034166666666667 -1.2541666666666667 0 -0.4985166666666667 0.1677666666666667 -0.91315 0.5034166666666667 -1.243666666666667 0.33518333333333333 -0.3305166666666667 0.75075 -0.49583333333333335 1.2465833333333334 -0.49583333333333335H25.666666666666668c0.49583333333333335 0 0.9115166666666668 0.16881666666666667 1.2471666666666668 0.5063333333333334 0.33518333333333333 0.33716666666666667 0.5028333333333334 0.7551833333333333 0.5028333333333334 1.2541666666666667 0 0.4985166666666667 -0.16765 0.91315 -0.5028333333333334 1.243666666666667 -0.33565000000000006 0.3305166666666667 -0.7513333333333334 0.49583333333333335 -1.2471666666666668 0.49583333333333335Zm11.083333333333334 -9.333333333333334h-17.5c-0.49583333333333335 0 -0.9114000000000001 -0.16881666666666667 -1.2465833333333334 -0.5063333333333334 -0.33565000000000006 -0.33716666666666667 -0.5034166666666667 -0.7551833333333333 -0.5034166666666667 -1.2541666666666667 0 -0.4985166666666667 0.1677666666666667 -0.91315 0.5034166666666667 -1.243666666666667 0.33518333333333333 -0.3305166666666667 0.75075 -0.49583333333333335 1.2465833333333334 -0.49583333333333335h17.5c0.49583333333333335 0 0.9115166666666668 0.16881666666666667 1.2471666666666668 0.5063333333333334 0.33518333333333333 0.33716666666666667 0.5028333333333334 0.7551833333333333 0.5028333333333334 1.2541666666666667 0 0.4985166666666667 -0.16765 0.91315 -0.5028333333333334 1.243666666666667 -0.33565000000000006 0.3305166666666667 -0.7513333333333334 0.49583333333333335 -1.2471666666666668 0.49583333333333335Z" stroke-width="1.1667"></path>
</svg>