<svg xmlns="http://www.w3.org/2000/svg" viewBox="-2.335 -2.335 56 56" fill="none" stroke="#000000" stroke-linecap="round" stroke-linejoin="round" id="File-Type-Pdf--Streamline-Tabler" height="56" width="56">
  <desc>
    File Type Pdf Streamline Icon: https://streamlinehq.com
  </desc>
  <path d="M29.9425 6.41625v8.555a2.13875 2.13875 0 0 0 2.13875 2.13875h8.555" stroke-width="4.67"></path>
  <path d="M10.69375 25.665V10.69375a4.2775 4.2775 0 0 1 4.2775 -4.2775h14.97125l10.69375 10.69375v8.555" stroke-width="4.67"></path>
  <path d="M10.69375 38.4975h3.208125a3.208125 3.208125 0 0 0 0 -6.41625H10.69375v12.8325" stroke-width="4.67"></path>
  <path d="M36.35875 38.4975h4.2775" stroke-width="4.67"></path>
  <path d="M42.775 32.08125h-6.41625v12.8325" stroke-width="4.67"></path>
  <path d="M23.526249999999997 32.08125v12.8325h2.13875a4.2775 4.2775 0 0 0 4.2775 -4.2775v-4.2775a4.2775 4.2775 0 0 0 -4.2775 -4.2775h-2.13875z" stroke-width="4.67"></path>
</svg>