<svg viewBox="0 0 56 56" fill="none" xmlns="http://www.w3.org/2000/svg" id="Download--Streamline-Radix" height="56" width="56">
  <desc>
    Download Streamline Icon: https://streamlinehq.com
  </desc>
  <path fill-rule="evenodd" clip-rule="evenodd" d="M28.000186666666668 3.9199626666666667c0.9278453333333333 0 1.6800000000000002 0.7521546666666667 1.6800000000000002 1.6800000000000002v25.810773333333334l8.33224 -8.332053333333333c0.6559466666666667 -0.656096 1.7195733333333334 -0.656096 2.37552 0 0.65632 0.656096 0.65632 1.7197973333333334 0 2.3758933333333334l-11.199813333333333 11.2c-0.656096 0.6560586666666667 -1.7197973333333334 0.6560586666666667 -2.3758933333333334 0l-11.2 -11.2c-0.656096 -0.656096 -0.656096 -1.7197973333333334 0 -2.3758933333333334 0.656096 -0.656096 1.7197973333333334 -0.656096 2.3758933333333334 0l8.332053333333333 8.332053333333333v-25.810773333333334c0 -0.9278453333333333 0.7521546666666667 -1.6800000000000002 1.6800000000000002 -1.6800000000000002ZM9.333333333333334 37.333333333333336c1.0309226666666667 0 1.8666666666666667 0.8358933333333333 1.8666666666666667 1.8666666666666667V44.8c0 2.067893333333333 1.66376 3.7333333333333334 3.7197066666666667 3.7333333333333334h26.15144c2.0596799999999997 0 3.7288533333333334 -1.6695466666666667 3.7288533333333334 -3.7333333333333334v-5.6c0 -1.0307733333333333 0.8358933333333333 -1.8666666666666667 1.8666666666666667 -1.8666666666666667s1.8666666666666667 0.8358933333333333 1.8666666666666667 1.8666666666666667V44.8c0 4.121973333333334 -3.3368533333333334 7.466666666666667 -7.462186666666667 7.466666666666667H14.919706666666666C10.790042666666666 52.266666666666666 7.466666666666667 48.91786666666667 7.466666666666667 44.8v-5.6c0 -1.0307733333333333 0.835744 -1.8666666666666667 1.8666666666666667 -1.8666666666666667Z" fill="#000000" stroke-width="3.7333"></path>
</svg>