<svg xmlns="http://www.w3.org/2000/svg" fill="none" viewBox="0 0 56 56" id="Bedroom-Baby--Streamline-Rounded-Material" height="56" width="56">
  <desc>
    Bedroom Baby Streamline Icon: https://streamlinehq.com
  </desc>
  <path fill="#000000" d="M28.0945 43.225c2.931483333333334 0 5.7583166666666665 -0.47635000000000005 8.480500000000001 -1.429166666666667 2.7221833333333336 -0.9528166666666668 5.191666666666667 -2.3625000000000003 7.408333333333333 -4.229166666666667 0.42781666666666673 -0.36014999999999997 0.66115 -0.8001 0.7000000000000001 -1.3200833333333333 0.03885000000000001 -0.5199833333333334 -0.13615 -0.9354333333333333 -0.525 -1.2465833333333334 -0.38885000000000003 -0.31115000000000004 -0.8166666666666667 -0.46666666666666673 -1.2833333333333334 -0.46666666666666673 -0.46666666666666673 0 -0.91385 0.1555166666666667 -1.3416666666666666 0.46666666666666673 -0.27218333333333333 0.19448333333333334 -0.5346833333333334 0.36948333333333333 -0.7875000000000001 0.525 -0.2528166666666667 0.1555166666666667 -0.5153166666666666 0.31115000000000004 -0.7875000000000001 0.46666666666666673l-2.3916666666666666 -4.433333333333334V25.55h1.8083333333333336c0.26448333333333335 0 0.49583333333333335 -0.09998333333333334 0.6941666666666667 -0.29983333333333334 0.19833333333333336 -0.20031666666666667 0.29750000000000004 -0.43365 0.29750000000000004 -0.7000000000000001 0 -0.26681666666666665 -0.09916666666666668 -0.49735000000000007 -0.29750000000000004 -0.6918333333333333 -0.19833333333333336 -0.19448333333333334 -0.42968333333333336 -0.2916666666666667 -0.6941666666666667 -0.2916666666666667h-13.066666666666666l-3.966666666666667 -6.825c-0.14431666666666668 -0.2625 -0.3537333333333334 -0.4740166666666667 -0.62825 -0.6346666666666667 -0.2745166666666667 -0.16018333333333334 -0.5707333333333334 -0.24033333333333334 -0.8884166666666666 -0.24033333333333334H15.750000000000002c-0.19448333333333334 0 -0.3305166666666667 0.10698333333333335 -0.4083333333333333 0.32083333333333336 -0.07781666666666667 0.21385 -0.019483333333333335 0.3791666666666667 0.17500000000000002 0.49583333333333335l0.9333333333333335 0.6416666666666667 -3.091666666666667 3.2666666666666666c-0.27218333333333333 0.2776666666666667 -0.4083333333333333 0.5985 -0.4083333333333333 0.9625 0 0.36400000000000005 0.13615 0.6848333333333333 0.4083333333333333 0.9625l0.23333333333333336 0.23333333333333336c0.24068333333333336 0.24185000000000004 0.5246500000000001 0.3801 0.8516666666666667 0.41475 0.3266666666666667 0.03465 0.6455166666666667 -0.04526666666666667 0.9566666666666667 -0.23975l3.0333333333333337 -2.1v10.733333333333333l-2.3333333333333335 4.433333333333334c-0.31115000000000004 -0.1555166666666667 -0.6125 -0.3305166666666667 -0.9041666666666668 -0.525 -0.2916666666666667 -0.19448333333333334 -0.5736500000000001 -0.38885000000000003 -0.8458333333333333 -0.5833333333333334 -0.38885000000000003 -0.31115000000000004 -0.8166666666666667 -0.4471833333333333 -1.2833333333333334 -0.4083333333333333 -0.46666666666666673 0.03885000000000001 -0.8738333333333334 0.20475 -1.2215 0.4975833333333334 -0.3912183333333334 0.32935000000000003 -0.577115 0.7445666666666667 -0.5576666666666666 1.2454166666666666 0.019448333333333335 0.50085 0.22361500000000004 0.9115166666666668 0.6125 1.2320000000000002 2.2944833333333334 1.9055166666666667 4.823816666666667 3.3444833333333333 7.588 4.316666666666667 2.763833333333334 0.9721833333333334 5.632666666666667 1.4583333333333335 8.6065 1.4583333333333335Zm0.051333333333333335 -3.441666666666667c-1.5750000000000002 0 -3.179166666666667 -0.16531666666666667 -4.8125 -0.49583333333333335s-3.2666666666666666 -0.9430166666666667 -4.9 -1.8375000000000001l2.683333333333333 -4.433333333333334c1.2055166666666668 0.46666666666666673 2.375683333333334 0.8166666666666667 3.5105 1.05 1.1343500000000002 0.23333333333333336 2.2586666666666666 0.35000000000000003 3.3728333333333333 0.35000000000000003 1.1278166666666667 0 2.255516666666667 -0.11666666666666668 3.3833333333333333 -0.35000000000000003 1.1278166666666667 -0.23333333333333336 2.2944833333333334 -0.5833333333333334 3.5 -1.05l2.683333333333333 4.433333333333334c-1.6333333333333333 0.8555166666666667 -3.218016666666667 1.4583333333333335 -4.754166666666667 1.8083333333333336 -1.5361500000000001 0.35000000000000003 -3.091666666666667 0.525 -4.666666666666667 0.525ZM8.166666666666668 51.333333333333336c-0.9333333333333335 0 -1.75 -0.35000000000000003 -2.45 -1.05 -0.7000000000000001 -0.7000000000000001 -1.05 -1.5166666666666668 -1.05 -2.45V8.166666666666668c0 -0.9333333333333335 0.35000000000000003 -1.75 1.05 -2.45C6.416666666666667 5.016666666666667 7.233333333333334 4.666666666666667 8.166666666666668 4.666666666666667h39.66666666666667c0.9333333333333335 0 1.75 0.35000000000000003 2.45 1.05 0.7000000000000001 0.7000000000000001 1.05 1.5166666666666668 1.05 2.45v39.66666666666667c0 0.9333333333333335 -0.35000000000000003 1.75 -1.05 2.45 -0.7000000000000001 0.7000000000000001 -1.5166666666666668 1.05 -2.45 1.05H8.166666666666668Zm0 -3.5h39.66666666666667V8.166666666666668H8.166666666666668v39.66666666666667Z" stroke-width="1.1667"></path>
</svg>