<svg role="img" viewBox="0 0 102 102" xmlns="http://www.w3.org/2000/svg" id="Hey--Streamline-Simple-Icons" height="102" width="102">
  <desc>
    Hey Streamline Icon: https://streamlinehq.com
  </desc>
  <title>HEY</title>
  <path d="M83.1725 28.466500000000003a24.327 24.327 0 0 0 -11.237 6.681c-3.57 -12.546 -11.2625 -31.535 -18.76375 -34.6375a5.45275 5.45275 0 0 0 -5.01925 0.21250000000000002c-4.692 2.7327500000000002 -7.74775 11.513250000000001 -5.0745 28.151999999999997C32.7675 10.000250000000001 29.16775 10.03 27.506 10.000250000000001a4.063 4.063 0 0 0 -3.71025 2.53725c-1.11775 2.4819999999999998 -3.3575 10.2255 2.0995 26.88975C19.324749999999998 30.43 17.306 29.2825 14.985499999999998 29.39725a4.11825 4.11825 0 0 0 -3.4892499999999997 2.3672500000000003c-1.96775 3.71025 -1.7425 13.039 4.36475 26.945a12.5205 12.5205 0 0 0 -7.53525 -3.1025 4.505 4.505 0 0 0 -3.62525 2.3120000000000003c-2.4819999999999998 4.56025 2.7285 17.35275 9.16725 26.026999999999997C19.0825 91.06475 29.52475 102 44.68875 102a34.19975 34.19975 0 0 0 6.328250000000001 -0.59925 2.7795 2.7795 0 0 0 -1.0625 -5.457c-12.60125 2.4564999999999997 -22.1 -4.471 -27.85025 -10.68875 -8.58925 -9.3075 -12.359 -20.485 -12.575750000000001 -23.8935 1.802 0.73525 6.986999999999999 3.791 17.0765 16.7195a2.7625 2.7625 0 0 0 4.50075 -3.21725c-14.182250000000002 -21.5305 -15.572000000000001 -34.561 -15.10875 -38.9555 4.1735 4.25 14.59025 19.851750000000003 22.44 31.64125a2.7285 2.7285 0 0 0 3.74 0.84575 2.7285 2.7285 0 0 0 1.0114999999999998 -3.71025C26.826 34.68 27.3955 21.046 28.3475 16.4645c2.45225 2.4819999999999998 8.9675 11.1265 22.695 40.9105a2.7285 2.7285 0 0 0 3.57 1.38975 2.7285 2.7285 0 0 0 1.5554999999999999 -3.51475c-13.311 -36.141999999999996 -7.531 -48.38625 -5.321 -49.775999999999996 2.8645 0 10.90975 13.79975 15.929 31.883499999999998 0.29750000000000004 1.11775 0.59925 2.21 0.87125 3.2725a17.3995 17.3995 0 0 0 -1.63625 3.927c-2.72 10.00875 -5.45275 32.725 -0.19125 38.9725a5.0745 5.0745 0 0 0 4.42 1.887 7.1739999999999995 7.1739999999999995 0 0 0 5.236 -3.21725c4.887499999999999 -7.11875 2.01875 -24.98575 -1.88275 -40.61725a20.535999999999998 20.535999999999998 0 0 1 10.90975 -7.82 5.45275 5.45275 0 0 1 5.457 1.30475c2.2355 2.5075 6.14125 11.8915 -5.695 44.97775a2.7795 2.7795 0 0 0 5.231750000000001 1.853c9.435 -26.375500000000002 10.914 -43.367000000000004 4.607 -50.515499999999996A10.744 10.744 0 0 0 83.1725 28.475zm-12.274 50.6515a1.7425 1.7425 0 0 1 -0.9265 0.7905c-2.04 -2.4267499999999997 -2.04 -16.80025 0.19125 -28.589750000000002 4.22875 20.37875 1.7722499999999999 26.35 0.73525 27.795z" fill="#000000" stroke-width="4.25"></path>
</svg>